<svg width="19" height="24" viewBox="0 0 19 24" fill="none" xmlns="http://www.w3.org/2000/svg">
<path d="M15.8693 12.3848C15.8808 11.4921 16.1186 10.6169 16.5604 9.84056C17.0023 9.06419 17.6339 8.4119 18.3966 7.94437C17.9121 7.25441 17.273 6.6866 16.53 6.28603C15.7869 5.88547 14.9605 5.6632 14.1163 5.63686C12.3154 5.44835 10.5695 6.71146 9.65177 6.71146C8.71631 6.71146 7.30337 5.65557 5.78185 5.68678C4.7977 5.71849 3.83856 6.00388 2.9979 6.51513C2.15723 7.02639 1.46371 7.74608 0.984898 8.60408C-1.08916 12.185 0.457905 17.4478 2.44471 20.3424C3.43876 21.7598 4.60051 23.343 6.12065 23.2869C7.6082 23.2253 8.16377 22.341 9.95935 22.341C11.7383 22.341 12.2595 23.2869 13.8105 23.2512C15.4067 23.2253 16.4124 21.8275 17.3716 20.3967C18.0858 19.3867 18.6354 18.2705 19 17.0894C18.0726 16.6983 17.2813 16.0436 16.7245 15.207C16.1678 14.3704 15.8704 13.3888 15.8693 12.3848Z" fill="black"/>
<path d="M12.9397 3.73327C13.8101 2.69141 14.2388 1.35227 14.135 0.000244141C12.8054 0.139507 11.5771 0.773213 10.6951 1.7751C10.2638 2.26455 9.93348 2.83396 9.72302 3.45078C9.51256 4.0676 9.42607 4.71974 9.4685 5.36991C10.1336 5.37674 10.7915 5.23299 11.3928 4.9495C11.9941 4.666 12.523 4.25015 12.9397 3.73327Z" fill="black"/>
</svg>
