<svg width="40" height="40" viewBox="0 0 40 40" fill="none" xmlns="http://www.w3.org/2000/svg">
<path d="M28.3332 5.56575C20.3657 0.965755 10.1661 3.69874 5.56608 11.6662C0.966081 19.6336 3.69907 29.8333 11.6665 34.4333C19.6339 39.0333 29.8336 36.3003 34.4336 28.3328C39.0336 20.3654 36.3006 10.1658 28.3332 5.56575ZM25.07 22.9845C24.7284 23.076 24.3959 23.0187 24.1216 22.8604C23.8474 22.702 23.6315 22.4427 23.54 22.1011L22.4907 18.1852L18.1657 25.6763C17.824 26.2681 17.05 26.4755 16.4582 26.1339C15.8664 25.7922 15.659 25.0181 16.0006 24.4263L20.3256 16.9352L16.4097 17.9845C15.7495 18.1614 15.0566 17.7614 14.8797 17.1011C14.7028 16.4409 15.1028 15.7481 15.7631 15.5712L22.5932 13.741C23.2534 13.5641 23.9462 13.9641 24.1232 14.6244L25.9533 21.4545C26.1302 22.1147 25.7302 22.8076 25.07 22.9845Z" fill="#2AB860"/>
</svg>
