<svg width="40" height="40" viewBox="0 0 40 40" fill="none" xmlns="http://www.w3.org/2000/svg">
<path d="M28.3322 5.56575C20.3648 0.965755 10.1651 3.69874 5.5651 11.6662C0.965104 19.6336 3.69809 29.8333 11.6655 34.4333C19.633 39.0333 29.8326 36.3003 34.4326 28.3328C39.0326 20.3654 36.2996 10.1658 28.3322 5.56575ZM24.2356 24.4279L17.4055 26.258C17.064 26.3495 16.7314 26.2922 16.4572 26.1339C16.183 25.9755 15.967 25.7162 15.8755 25.3746L14.0454 18.5445C13.8685 17.8843 14.2685 17.1915 14.9287 17.0145C15.589 16.8376 16.2818 17.2376 16.4587 17.8979L17.508 21.8138L21.833 14.3227C22.1747 13.7309 22.9487 13.5235 23.5405 13.8652C24.1323 14.2068 24.3397 14.9809 23.9981 15.5727L19.6731 23.0638L23.589 22.0145C24.2492 21.8376 24.9421 22.2376 25.119 22.8979C25.2959 23.5581 24.8959 24.2509 24.2356 24.4279Z" fill="#EB4447"/>
</svg>
