<svg width="18" height="20" viewBox="0 0 18 20" fill="none" xmlns="http://www.w3.org/2000/svg">
<path fill-rule="evenodd" clip-rule="evenodd" d="M9 20C4.757 20 2.636 20 1.318 18.535C-1.19209e-07 17.072 0 14.714 0 10C0 5.286 -1.19209e-07 2.929 1.318 1.464C2.636 -0.00100005 4.758 1.85892e-09 9 1.85892e-09C13.242 1.85892e-09 15.364 0 16.682 1.464C18 2.93 18 5.286 18 10C18 14.714 18 17.071 16.682 18.535C15.364 19.999 13.242 20 9 20ZM12 4H6C5.535 4 5.303 4 5.112 4.051C4.85787 4.11919 4.62614 4.25303 4.44009 4.43909C4.25403 4.62514 4.12019 4.85687 4.052 5.111C4 5.304 4 5.536 4 6C4 6.464 4 6.697 4.051 6.888C4.11919 7.14213 4.25303 7.37386 4.43909 7.55991C4.62514 7.74597 4.85687 7.87981 5.111 7.948C5.304 8 5.536 8 6 8H12C12.465 8 12.697 8 12.888 7.949C13.1421 7.88081 13.3739 7.74697 13.5599 7.56091C13.746 7.37486 13.8798 7.14313 13.948 6.889C14 6.696 14 6.464 14 6C14 5.536 14 5.303 13.949 5.112C13.8808 4.85787 13.747 4.62614 13.5609 4.44009C13.3749 4.25403 13.1431 4.12019 12.889 4.052C12.697 4 12.464 4 12 4ZM6 11C6 11.2652 5.89464 11.5196 5.70711 11.7071C5.51957 11.8946 5.26522 12 5 12C4.73478 12 4.48043 11.8946 4.29289 11.7071C4.10536 11.5196 4 11.2652 4 11C4 10.7348 4.10536 10.4804 4.29289 10.2929C4.48043 10.1054 4.73478 10 5 10C5.26522 10 5.51957 10.1054 5.70711 10.2929C5.89464 10.4804 6 10.7348 6 11ZM9 12C9.26522 12 9.51957 11.8946 9.70711 11.7071C9.89464 11.5196 10 11.2652 10 11C10 10.7348 9.89464 10.4804 9.70711 10.2929C9.51957 10.1054 9.26522 10 9 10C8.73478 10 8.48043 10.1054 8.29289 10.2929C8.10536 10.4804 8 10.7348 8 11C8 11.2652 8.10536 11.5196 8.29289 11.7071C8.48043 11.8946 8.73478 12 9 12ZM14 11C14 11.2652 13.8946 11.5196 13.7071 11.7071C13.5196 11.8946 13.2652 12 13 12C12.7348 12 12.4804 11.8946 12.2929 11.7071C12.1054 11.5196 12 11.2652 12 11C12 10.7348 12.1054 10.4804 12.2929 10.2929C12.4804 10.1054 12.7348 10 13 10C13.2652 10 13.5196 10.1054 13.7071 10.2929C13.8946 10.4804 14 10.7348 14 11ZM13 16C13.2652 16 13.5196 15.8946 13.7071 15.7071C13.8946 15.5196 14 15.2652 14 15C14 14.7348 13.8946 14.4804 13.7071 14.2929C13.5196 14.1054 13.2652 14 13 14C12.7348 14 12.4804 14.1054 12.2929 14.2929C12.1054 14.4804 12 14.7348 12 15C12 15.2652 12.1054 15.5196 12.2929 15.7071C12.4804 15.8946 12.7348 16 13 16ZM10 15C10 15.2652 9.89464 15.5196 9.70711 15.7071C9.51957 15.8946 9.26522 16 9 16C8.73478 16 8.48043 15.8946 8.29289 15.7071C8.10536 15.5196 8 15.2652 8 15C8 14.7348 8.10536 14.4804 8.29289 14.2929C8.48043 14.1054 8.73478 14 9 14C9.26522 14 9.51957 14.1054 9.70711 14.2929C9.89464 14.4804 10 14.7348 10 15ZM5 16C5.26522 16 5.51957 15.8946 5.70711 15.7071C5.89464 15.5196 6 15.2652 6 15C6 14.7348 5.89464 14.4804 5.70711 14.2929C5.51957 14.1054 5.26522 14 5 14C4.73478 14 4.48043 14.1054 4.29289 14.2929C4.10536 14.4804 4 14.7348 4 15C4 15.2652 4.10536 15.5196 4.29289 15.7071C4.48043 15.8946 4.73478 16 5 16Z" fill="white"/>
</svg>
