<svg width="20" height="22" viewBox="0 0 20 22" fill="none" xmlns="http://www.w3.org/2000/svg">
<path d="M0.404877 0.347963C0.123581 0.680553 -0.0199496 1.10809 0.00367103 1.54304V20.4253C-0.0253745 20.861 0.118821 21.2905 0.404877 21.6204L0.464631 21.6887L11.0411 11.1122V10.8561L0.464631 0.288208L0.404877 0.347963Z" fill="url(#paint0_linear_16_2312)"/>
<path d="M14.541 14.6376L11.0411 11.1121V10.856L14.541 7.33057L14.6178 7.38179L18.8091 9.75487C20.0042 10.4292 20.0042 11.539 18.8091 12.2219L14.6349 14.5949L14.541 14.6376Z" fill="url(#paint1_linear_16_2312)"/>
<path d="M14.6433 14.5866L11.041 10.9843L0.404785 21.6205C0.645998 21.8352 0.954748 21.9587 1.27749 21.9696C1.60024 21.9805 1.91663 21.8781 2.17179 21.6802L14.6433 14.5866Z" fill="url(#paint2_linear_16_2312)"/>
<path d="M14.6433 7.38199L2.17179 0.296881C1.91829 0.0962052 1.60215 -0.00866822 1.27896 0.000699454C0.955777 0.0100671 0.646242 0.133077 0.404785 0.3481L11.041 10.9843L14.6433 7.38199Z" fill="url(#paint3_linear_16_2312)"/>
<defs>
<linearGradient id="paint0_linear_16_2312" x1="10.1021" y1="1.34671" x2="-4.22178" y2="15.6706" gradientUnits="userSpaceOnUse">
<stop stop-color="#00A0FF"/>
<stop offset="0.01" stop-color="#00A1FF"/>
<stop offset="0.26" stop-color="#00BEFF"/>
<stop offset="0.51" stop-color="#00D2FF"/>
<stop offset="0.76" stop-color="#00DFFF"/>
<stop offset="1" stop-color="#00E3FF"/>
</linearGradient>
<linearGradient id="paint1_linear_16_2312" x1="20.3713" y1="10.9841" x2="-0.277964" y2="10.9841" gradientUnits="userSpaceOnUse">
<stop stop-color="#FFE000"/>
<stop offset="0.41" stop-color="#FFBD00"/>
<stop offset="0.78" stop-color="#FFA500"/>
<stop offset="1" stop-color="#FF9C00"/>
</linearGradient>
<linearGradient id="paint2_linear_16_2312" x1="12.6885" y1="12.9476" x2="-6.74008" y2="32.3676" gradientUnits="userSpaceOnUse">
<stop stop-color="#FF3A44"/>
<stop offset="1" stop-color="#C31162"/>
</linearGradient>
<linearGradient id="paint3_linear_16_2312" x1="-2.27561" y1="-5.9346" x2="6.39725" y2="2.73826" gradientUnits="userSpaceOnUse">
<stop stop-color="#32A071"/>
<stop offset="0.07" stop-color="#2DA771"/>
<stop offset="0.48" stop-color="#15CF74"/>
<stop offset="0.8" stop-color="#06E775"/>
<stop offset="1" stop-color="#00F076"/>
</linearGradient>
</defs>
</svg>
