<svg width="16" height="17" viewBox="0 0 16 17" fill="none" xmlns="http://www.w3.org/2000/svg">
<path d="M7.99997 14.5C11.306 14.5 14 11.806 14 8.49999C14 5.19399 11.306 2.49999 7.99997 2.49999C4.69397 2.49999 1.99997 5.19399 1.99997 8.49999C1.99997 11.806 4.69397 14.5 7.99997 14.5ZM8.44997 10.9C8.44997 11.146 8.24597 11.35 7.99997 11.35C7.75397 11.35 7.54997 11.146 7.54997 10.9L7.54997 7.89999C7.54997 7.65399 7.75397 7.44999 7.99997 7.44999C8.24597 7.44999 8.44997 7.65399 8.44997 7.89999L8.44997 10.9ZM7.44797 5.87199C7.47797 5.79399 7.51997 5.73399 7.57397 5.67399C7.63397 5.61999 7.69997 5.57799 7.77197 5.54799C7.84397 5.51799 7.92197 5.49999 7.99997 5.49999C8.07797 5.49999 8.15597 5.51799 8.22797 5.54799C8.29997 5.57799 8.36597 5.61999 8.42597 5.67399C8.47997 5.73399 8.52197 5.79399 8.55197 5.87199C8.58197 5.94399 8.59997 6.02199 8.59997 6.09999C8.59997 6.17799 8.58197 6.25599 8.55197 6.32799C8.52197 6.39999 8.47997 6.46599 8.42597 6.52599C8.36597 6.57999 8.29997 6.62199 8.22797 6.65199C8.08397 6.71199 7.91597 6.71199 7.77197 6.65199C7.69997 6.62199 7.63397 6.57999 7.57397 6.52599C7.51997 6.46599 7.47797 6.39999 7.44797 6.32799C7.41797 6.25599 7.39997 6.17799 7.39997 6.09999C7.39997 6.02199 7.41797 5.94399 7.44797 5.87199Z" fill="white"/>
</svg>
