<svg width="16" height="17" viewBox="0 0 16 17" fill="none" xmlns="http://www.w3.org/2000/svg">
<path d="M13.8159 12.1925C13.8159 12.4025 13.7692 12.6183 13.67 12.8283C13.5709 13.0383 13.4425 13.2367 13.2734 13.4233C12.9875 13.7383 12.6725 13.9658 12.3167 14.1117C11.9667 14.2575 11.5875 14.3333 11.1792 14.3333C10.5842 14.3333 9.94835 14.1933 9.27752 13.9075C8.60669 13.6217 7.93585 13.2367 7.27085 12.7525C6.60002 12.2625 5.96419 11.72 5.35752 11.1192C4.75669 10.5125 4.21419 9.87667 3.73002 9.21167C3.25169 8.54667 2.86669 7.88167 2.58669 7.2225C2.30669 6.5575 2.16669 5.92167 2.16669 5.315C2.16669 4.91833 2.23669 4.53917 2.37669 4.18917C2.51669 3.83333 2.73835 3.50667 3.04752 3.215C3.42085 2.8475 3.82919 2.66667 4.26085 2.66667C4.42419 2.66667 4.58752 2.70167 4.73335 2.77167C4.88502 2.84167 5.01919 2.94667 5.12419 3.09833L6.47752 5.00583C6.58252 5.15167 6.65835 5.28583 6.71085 5.41417C6.76335 5.53667 6.79252 5.65917 6.79252 5.77C6.79252 5.91 6.75169 6.05 6.67002 6.18417C6.59419 6.31833 6.48335 6.45833 6.34335 6.59833L5.90002 7.05917C5.83585 7.12333 5.80669 7.19917 5.80669 7.2925C5.80669 7.33917 5.81252 7.38 5.82419 7.42667C5.84169 7.47333 5.85919 7.50833 5.87085 7.54333C5.97585 7.73583 6.15669 7.98667 6.41335 8.29C6.67585 8.59333 6.95585 8.9025 7.25919 9.21167C7.57419 9.52083 7.87752 9.80667 8.18669 10.0692C8.49002 10.3258 8.74085 10.5008 8.93919 10.6058C8.96835 10.6175 9.00335 10.635 9.04419 10.6525C9.09085 10.67 9.13752 10.6758 9.19002 10.6758C9.28919 10.6758 9.36502 10.6408 9.42919 10.5767L9.87252 10.1392C10.0184 9.99333 10.1584 9.8825 10.2925 9.8125C10.4267 9.73083 10.5609 9.69 10.7067 9.69C10.8175 9.69 10.9342 9.71333 11.0625 9.76583C11.1909 9.81833 11.325 9.89417 11.4709 9.99333L13.4017 11.3642C13.5534 11.4692 13.6584 11.5917 13.7225 11.7375C13.7809 11.8833 13.8159 12.0292 13.8159 12.1925Z" fill="white"/>
</svg>
