<svg width="16" height="17" viewBox="0 0 16 17" fill="none" xmlns="http://www.w3.org/2000/svg">
<path fill-rule="evenodd" clip-rule="evenodd" d="M9.85388 13.967C11.3937 12.0034 13.3334 9.15061 13.3334 7.23913C13.3334 4.0695 10.9455 1.5 8.00002 1.5C5.0545 1.5 2.66669 4.0695 2.66669 7.23913C2.66669 9.15061 4.60632 12.0034 6.14616 13.967C6.94952 14.9914 7.3512 15.5037 8.00002 15.5037C8.64884 15.5037 9.05052 14.9914 9.85388 13.967ZM8.00002 9.5C6.89545 9.5 6.00002 8.60457 6.00002 7.5C6.00002 6.39543 6.89545 5.5 8.00002 5.5C9.10459 5.5 10 6.39543 10 7.5C10 8.60457 9.10459 9.5 8.00002 9.5Z" fill="white"/>
</svg>
