<svg width="16" height="17" viewBox="0 0 16 17" fill="none" xmlns="http://www.w3.org/2000/svg">
<path d="M14.6467 2.05333C14.1667 1.50667 13.4533 1.16667 12.6667 1.16667C11.92 1.16667 11.24 1.47333 10.7533 1.97333C10.4733 2.26 10.26 2.60667 10.1333 2.99333C10.0467 3.26 10 3.54 10 3.83333C10 4.33333 10.14 4.80667 10.3867 5.20667C10.52 5.43333 10.6933 5.64 10.8933 5.81333C11.36 6.24 11.98 6.5 12.6667 6.5C12.96 6.5 13.24 6.45333 13.5 6.36C14.1133 6.16667 14.6267 5.74667 14.9467 5.20667C15.0867 4.98 15.1933 4.72 15.2533 4.45333C15.3067 4.25333 15.3333 4.04667 15.3333 3.83333C15.3333 3.15333 15.0733 2.52667 14.6467 2.05333ZM13.66 4.32H13.1667V4.84C13.1667 5.11333 12.94 5.34 12.6667 5.34C12.3933 5.34 12.1667 5.11333 12.1667 4.84V4.32H11.6733C11.4 4.32 11.1733 4.09333 11.1733 3.82C11.1733 3.54667 11.4 3.32 11.6733 3.32H12.1667V2.84667C12.1667 2.57333 12.3933 2.34667 12.6667 2.34667C12.94 2.34667 13.1667 2.57333 13.1667 2.84667V3.32H13.66C13.9333 3.32 14.16 3.54667 14.16 3.82C14.16 4.09333 13.94 4.32 13.66 4.32Z" fill="white"/>
<path d="M14.6667 8.5C14.6667 7.62667 14.5 6.78667 14.1867 6.02C13.98 6.16667 13.7467 6.28 13.5 6.36C13.4267 6.38667 13.3534 6.40667 13.2734 6.42667C13.5267 7.06667 13.6667 7.76667 13.6667 8.5C13.6667 10.0467 13.04 11.4533 12.0267 12.48C11.8334 12.2333 11.5867 12.0067 11.2934 11.8133C9.48671 10.6 6.52671 10.6 4.70671 11.8133C4.41337 12.0067 4.17337 12.2333 3.97337 12.48C2.96004 11.4533 2.33337 10.0467 2.33337 8.5C2.33337 5.37333 4.87337 2.83333 8.00004 2.83333C8.72671 2.83333 9.42671 2.97333 10.0667 3.22667C10.0867 3.14667 10.1067 3.07333 10.1334 2.99333C10.2134 2.74667 10.3267 2.52 10.48 2.31333C9.71337 2 8.87337 1.83333 8.00004 1.83333C4.32671 1.83333 1.33337 4.82667 1.33337 8.5C1.33337 10.4333 2.16671 12.1733 3.48671 13.3933C3.48671 13.4 3.48671 13.4 3.48004 13.4067C3.54671 13.4733 3.62671 13.5267 3.69337 13.5867C3.73337 13.62 3.76671 13.6533 3.80671 13.68C3.92671 13.78 4.06004 13.8733 4.18671 13.9667C4.23337 14 4.27337 14.0267 4.32004 14.06C4.44671 14.1467 4.58004 14.2267 4.72004 14.3C4.76671 14.3267 4.82004 14.36 4.86671 14.3867C5.00004 14.46 5.14004 14.5267 5.28671 14.5867C5.34004 14.6133 5.39337 14.64 5.44671 14.66C5.59337 14.72 5.74004 14.7733 5.88671 14.82C5.94004 14.84 5.99337 14.86 6.04671 14.8733C6.20671 14.92 6.36671 14.96 6.52671 15C6.57337 15.0133 6.62004 15.0267 6.67337 15.0333C6.86004 15.0733 7.04671 15.1 7.24004 15.12C7.26671 15.12 7.29337 15.1267 7.32004 15.1333C7.54671 15.1533 7.77337 15.1667 8.00004 15.1667C8.22671 15.1667 8.45337 15.1533 8.67337 15.1333C8.70004 15.1333 8.72671 15.1267 8.75337 15.12C8.94671 15.1 9.13337 15.0733 9.32004 15.0333C9.36671 15.0267 9.41337 15.0067 9.46671 15C9.62671 14.96 9.79337 14.9267 9.94671 14.8733C10 14.8533 10.0534 14.8333 10.1067 14.82C10.2534 14.7667 10.4067 14.72 10.5467 14.66C10.6 14.64 10.6534 14.6133 10.7067 14.5867C10.8467 14.5267 10.9867 14.46 11.1267 14.3867C11.18 14.36 11.2267 14.3267 11.2734 14.3C11.4067 14.22 11.54 14.1467 11.6734 14.06C11.72 14.0333 11.76 14 11.8067 13.9667C11.94 13.8733 12.0667 13.78 12.1867 13.68C12.2267 13.6467 12.26 13.6133 12.3 13.5867C12.3734 13.5267 12.4467 13.4667 12.5134 13.4067C12.5134 13.4 12.5134 13.4 12.5067 13.3933C13.8334 12.1733 14.6667 10.4333 14.6667 8.5Z" fill="white"/>
<path d="M8 5.12C6.62 5.12 5.5 6.24 5.5 7.62C5.5 8.97333 6.56 10.0733 7.96667 10.1133C7.98667 10.1133 8.01333 10.1133 8.02667 10.1133C8.04 10.1133 8.06 10.1133 8.07333 10.1133C8.08 10.1133 8.08667 10.1133 8.08667 10.1133C9.43333 10.0667 10.4933 8.97333 10.5 7.62C10.5 6.24 9.38 5.12 8 5.12Z" fill="white"/>
</svg>
