<svg width="16" height="17" viewBox="0 0 16 17" fill="none" xmlns="http://www.w3.org/2000/svg">
<path d="M13.1934 3.31333C11.2201 1.34667 8.02006 1.34667 6.06006 3.31333C4.68006 4.68 4.26672 6.64667 4.80006 8.38L1.66672 11.5133C1.44672 11.74 1.29339 12.1867 1.34006 12.5067L1.54006 13.96C1.61339 14.44 2.06006 14.8933 2.54006 14.96L3.99339 15.16C4.31339 15.2067 4.76006 15.06 4.98672 14.8267L5.53339 14.28C5.66672 14.1533 5.66672 13.94 5.53339 13.8067L4.24006 12.5133C4.04672 12.32 4.04672 12 4.24006 11.8067C4.43339 11.6133 4.75339 11.6133 4.94672 11.8067L6.24672 13.1067C6.37339 13.2333 6.58672 13.2333 6.71339 13.1067L8.12672 11.7C9.85339 12.24 11.8201 11.82 13.1934 10.4533C15.1601 8.48667 15.1601 5.28 13.1934 3.31333ZM9.66672 8.5C8.74672 8.5 8.00006 7.75333 8.00006 6.83333C8.00006 5.91333 8.74672 5.16667 9.66672 5.16667C10.5867 5.16667 11.3334 5.91333 11.3334 6.83333C11.3334 7.75333 10.5867 8.5 9.66672 8.5Z" fill="white"/>
</svg>
