<svg width="20" height="20" viewBox="0 0 20 20" fill="none" xmlns="http://www.w3.org/2000/svg">
<path d="M10.5833 14.0662H11.1667C12.125 14.0662 12.9083 13.2829 12.9083 12.3245V11.7412H10.5833V14.0662Z" fill="white"/>
<path d="M7.09167 12.3245C7.09167 13.2829 7.87501 14.0662 8.83334 14.0662H9.41667V11.7412H7.09167V12.3245Z" fill="white"/>
<path d="M7.09167 10.0005V10.5838H9.41667V8.25879H8.83334C7.87501 8.25879 7.09167 9.04212 7.09167 10.0005Z" fill="white"/>
<path d="M16.6917 5.68373L11.9 2.3254C10.5917 1.40873 8.59166 1.45873 7.33332 2.43373L3.15832 5.69206C2.31666 6.34206 1.66666 7.6754 1.66666 8.7254V14.4754C1.66666 16.6004 3.39166 18.3337 5.50832 18.3337H14.4833C16.6 18.3337 18.325 16.6087 18.325 14.4837V8.83373C18.3333 7.70873 17.6083 6.3254 16.6917 5.68373ZM14.0667 12.3254C14.0667 13.9254 12.7583 15.2337 11.1583 15.2337H8.83332C7.23332 15.2337 5.92499 13.9337 5.92499 12.3254V10.0004C5.92499 8.4004 7.23332 7.09206 8.83332 7.09206H11.1583C12.7583 7.09206 14.0667 8.39206 14.0667 10.0004V12.3254Z" fill="white"/>
<path d="M11.1667 8.25879H10.5833V10.5838H12.9083V10.0005C12.9083 9.04212 12.125 8.25879 11.1667 8.25879Z" fill="white"/>
</svg>
