<svg width="189" height="42" viewBox="0 0 189 42" fill="none" xmlns="http://www.w3.org/2000/svg">
<path d="M0 2.81818C0 1.81403 0.814028 1 1.81818 1H16.3636C17.3678 1 18.1818 1.81403 18.1818 2.81818V24.4711C18.1818 33.5997 10.7816 41 1.65289 41C0.740026 41 0 40.26 0 39.3471V2.81818Z" fill="#4428D2"/>
<path d="M21.8184 2.81818C21.8184 1.81403 22.6324 1 23.6365 1H30.9093C35.93 1 40.0002 5.07014 40.0002 10.0909C40.0002 15.1117 35.93 19.1818 30.9093 19.1818H23.6365C22.6324 19.1818 21.8184 18.3678 21.8184 17.3636V2.81818Z" fill="#4428D2"/>
<path d="M21.8184 24.6364C21.8184 23.6322 22.6324 22.8182 23.6365 22.8182H30.9093C35.93 22.8182 40.0002 26.8883 40.0002 31.9091V39.1818C40.0002 40.186 39.1861 41 38.182 41H23.6365C22.6324 41 21.8184 40.186 21.8184 39.1818V24.6364Z" fill="#4428D2"/>
<path d="M60.8381 10.1818L66.1115 26.7585H66.3139L71.598 10.1818H76.7116L69.1903 32H63.2457L55.7138 10.1818H60.8381ZM78.3525 32V15.6364H82.7523V18.4915H82.9228C83.2211 17.4759 83.7218 16.7088 84.4249 16.1903C85.1281 15.6648 85.9377 15.402 86.8539 15.402C87.0812 15.402 87.3262 15.4162 87.589 15.4446C87.8518 15.473 88.0826 15.5121 88.2815 15.5618V19.5888C88.0684 19.5249 87.7737 19.468 87.3972 19.4183C87.0208 19.3686 86.6764 19.3438 86.3639 19.3438C85.6962 19.3438 85.0996 19.4893 84.5741 19.7805C84.0556 20.0646 83.6437 20.4624 83.3383 20.9737C83.04 21.4851 82.8908 22.0746 82.8908 22.7422V32H78.3525ZM96.4235 32.3196C94.7403 32.3196 93.2914 31.9787 92.077 31.2969C90.8696 30.608 89.9392 29.6349 89.2858 28.3778C88.6324 27.1136 88.3056 25.6186 88.3056 23.8928C88.3056 22.2095 88.6324 20.7322 89.2858 19.4609C89.9392 18.1896 90.8589 17.1989 92.045 16.4886C93.2382 15.7784 94.6373 15.4233 96.2424 15.4233C97.322 15.4233 98.327 15.5973 99.2574 15.9453C100.195 16.2862 101.012 16.8011 101.708 17.4901C102.411 18.179 102.958 19.0455 103.348 20.0895C103.739 21.1264 103.934 22.3409 103.934 23.733V24.9794H90.1167V22.1669H99.6622C99.6622 21.5135 99.5201 20.9347 99.236 20.4304C98.952 19.9261 98.5578 19.532 98.0535 19.2479C97.5564 18.9567 96.9775 18.8111 96.317 18.8111C95.6281 18.8111 95.0173 18.9709 94.4846 19.2905C93.9591 19.603 93.5471 20.0256 93.2488 20.5582C92.9505 21.0838 92.7978 21.6697 92.7907 22.3161V24.9901C92.7907 25.7997 92.9399 26.4993 93.2382 27.0888C93.5436 27.6783 93.9733 28.1328 94.5272 28.4524C95.0812 28.772 95.7382 28.9318 96.4981 28.9318C97.0024 28.9318 97.464 28.8608 97.8831 28.7188C98.3021 28.5767 98.6608 28.3636 98.9591 28.0795C99.2574 27.7955 99.4846 27.4474 99.6409 27.0355L103.838 27.3125C103.625 28.321 103.188 29.2017 102.528 29.9545C101.875 30.7003 101.029 31.2827 99.9924 31.7017C98.9626 32.1136 97.773 32.3196 96.4235 32.3196ZM110.534 22.5398V32H105.996V15.6364H110.321V18.5234H110.513C110.875 17.5717 111.482 16.8189 112.335 16.2649C113.187 15.7038 114.22 15.4233 115.435 15.4233C116.571 15.4233 117.562 15.6719 118.407 16.169C119.252 16.6662 119.909 17.3764 120.378 18.2997C120.847 19.2159 121.081 20.3097 121.081 21.581V32H116.543V22.3906C116.55 21.3892 116.294 20.608 115.776 20.0469C115.257 19.4787 114.543 19.1946 113.634 19.1946C113.024 19.1946 112.484 19.326 112.015 19.5888C111.553 19.8516 111.191 20.2351 110.928 20.7393C110.673 21.2365 110.541 21.8366 110.534 22.5398ZM132.462 15.6364V19.0455H122.607V15.6364H132.462ZM124.845 11.7159H129.383V26.9716C129.383 27.3906 129.447 27.7173 129.575 27.9517C129.703 28.179 129.88 28.3388 130.107 28.4311C130.342 28.5234 130.612 28.5696 130.917 28.5696C131.13 28.5696 131.343 28.5518 131.556 28.5163C131.769 28.4737 131.933 28.4418 132.046 28.4205L132.76 31.7976C132.533 31.8686 132.213 31.9503 131.801 32.0426C131.389 32.142 130.889 32.2024 130.299 32.2237C129.205 32.2663 128.247 32.1207 127.423 31.7869C126.606 31.4531 125.97 30.9347 125.516 30.2315C125.061 29.5284 124.838 28.6406 124.845 27.5682V11.7159ZM145.012 25.0327V15.6364H149.55V32H145.193V29.0277H145.022C144.653 29.9865 144.039 30.7571 143.179 31.3395C142.327 31.9219 141.287 32.2131 140.058 32.2131C138.964 32.2131 138.002 31.9645 137.171 31.4673C136.34 30.9702 135.69 30.2635 135.221 29.3473C134.76 28.4311 134.525 27.3338 134.518 26.0554V15.6364H139.056V25.2457C139.064 26.2116 139.323 26.9751 139.834 27.5362C140.346 28.0973 141.031 28.3778 141.89 28.3778C142.437 28.3778 142.949 28.2536 143.424 28.005C143.9 27.7493 144.284 27.3729 144.575 26.8757C144.873 26.3786 145.019 25.7642 145.012 25.0327ZM154.933 32.277C154.23 32.277 153.626 32.0284 153.122 31.5312C152.625 31.027 152.376 30.4233 152.376 29.7202C152.376 29.0241 152.625 28.4276 153.122 27.9304C153.626 27.4332 154.23 27.1847 154.933 27.1847C155.615 27.1847 156.211 27.4332 156.723 27.9304C157.234 28.4276 157.49 29.0241 157.49 29.7202C157.49 30.1889 157.369 30.6186 157.128 31.0092C156.893 31.3928 156.584 31.7017 156.201 31.9361C155.817 32.1634 155.395 32.277 154.933 32.277ZM160.316 32V15.6364H164.716V18.4915H164.886C165.184 17.4759 165.685 16.7088 166.388 16.1903C167.091 15.6648 167.901 15.402 168.817 15.402C169.044 15.402 169.289 15.4162 169.552 15.4446C169.815 15.473 170.046 15.5121 170.245 15.5618V19.5888C170.032 19.5249 169.737 19.468 169.361 19.4183C168.984 19.3686 168.64 19.3438 168.327 19.3438C167.66 19.3438 167.063 19.4893 166.537 19.7805C166.019 20.0646 165.607 20.4624 165.302 20.9737C165.003 21.4851 164.854 22.0746 164.854 22.7422V32H160.316ZM182.185 25.0327V15.6364H186.723V32H182.366V29.0277H182.195C181.826 29.9865 181.212 30.7571 180.352 31.3395C179.5 31.9219 178.46 32.2131 177.231 32.2131C176.137 32.2131 175.175 31.9645 174.344 31.4673C173.513 30.9702 172.863 30.2635 172.394 29.3473C171.933 28.4311 171.698 27.3338 171.691 26.0554V15.6364H176.23V25.2457C176.237 26.2116 176.496 26.9751 177.007 27.5362C177.519 28.0973 178.204 28.3778 179.063 28.3778C179.61 28.3778 180.122 28.2536 180.597 28.005C181.073 27.7493 181.457 27.3729 181.748 26.8757C182.046 26.3786 182.192 25.7642 182.185 25.0327Z" fill="#313131"/>
</svg>
