<svg width="339" height="75" viewBox="0 0 339 75" fill="none" xmlns="http://www.w3.org/2000/svg">
<path d="M0 4.88759C0 3.08652 1.46006 1.62646 3.26113 1.62646H29.3493C31.1503 1.62646 32.6104 3.08652 32.6104 4.88759V43.7273C32.6104 60.1003 19.3375 73.3731 2.96458 73.3731C1.32729 73.3731 0 72.0459 0 70.4086V4.88759Z" fill="#FF6B84"/>
<path d="M39.1328 4.88759C39.1328 3.08652 40.5929 1.62646 42.3939 1.62646H55.4376C64.4429 1.62646 71.7432 8.92718 71.7432 17.9325C71.7432 26.9379 64.4429 34.2386 55.4376 34.2386H42.3939C40.5929 34.2386 39.1328 32.7785 39.1328 30.9775V4.88759Z" fill="#FF6B84"/>
<path d="M39.1328 44.0225C39.1328 42.2214 40.5929 40.7614 42.3939 40.7614H55.4376C64.4429 40.7614 71.7432 48.0616 71.7432 57.067V70.1124C71.7432 71.9134 70.2831 73.3735 68.4821 73.3735H42.3939C40.5929 73.3735 39.1328 71.9134 39.1328 70.1124V44.0225Z" fill="#FF6B84"/>
<path d="M109.12 17.8665L118.578 47.5988H118.941L128.419 17.8665H137.591L124.101 57H113.438L99.9287 17.8665H109.12ZM140.534 57V27.6499H148.426V32.7709H148.731C149.266 30.9492 150.164 29.5734 151.426 28.6435C152.687 27.7008 154.139 27.2295 155.782 27.2295C156.19 27.2295 156.629 27.255 157.101 27.3059C157.572 27.3569 157.986 27.4269 158.343 27.5161V34.739C157.961 34.6243 157.432 34.5224 156.757 34.4333C156.082 34.3441 155.464 34.2995 154.903 34.2995C153.706 34.2995 152.636 34.5607 151.693 35.0829C150.763 35.5925 150.024 36.3059 149.477 37.2231C148.941 38.1402 148.674 39.1976 148.674 40.395V57H140.534ZM172.946 57.5732C169.927 57.5732 167.329 56.9618 165.15 55.7389C162.985 54.5032 161.316 52.758 160.144 50.5032C158.972 48.2357 158.386 45.5542 158.386 42.4587C158.386 39.4396 158.972 36.7899 160.144 34.5097C161.316 32.2295 162.966 30.4524 165.093 29.1785C167.233 27.9046 169.743 27.2677 172.622 27.2677C174.558 27.2677 176.36 27.5798 178.029 28.204C179.711 28.8155 181.176 29.739 182.424 30.9747C183.685 32.2103 184.666 33.7645 185.367 35.6371C186.067 37.4969 186.418 39.6753 186.418 42.1721V44.4077H161.634V39.3632H178.755C178.755 38.1912 178.501 37.153 177.991 36.2485C177.482 35.3441 176.774 34.6371 175.87 34.1275C174.978 33.6052 173.94 33.3441 172.755 33.3441C171.52 33.3441 170.424 33.6307 169.469 34.204C168.526 34.7645 167.787 35.5224 167.252 36.4778C166.717 37.4205 166.443 38.4715 166.431 39.6307V44.4268C166.431 45.8791 166.698 47.1338 167.233 48.1911C167.781 49.2485 168.552 50.0637 169.545 50.637C170.539 51.2102 171.717 51.4968 173.08 51.4968C173.985 51.4968 174.813 51.3695 175.564 51.1147C176.316 50.8599 176.959 50.4777 177.494 49.9682C178.029 49.4586 178.437 48.8344 178.717 48.0956L186.246 48.5924C185.864 50.4013 185.08 51.9809 183.895 53.3312C182.724 54.6688 181.208 55.7134 179.348 56.465C177.501 57.2038 175.367 57.5732 172.946 57.5732ZM198.256 40.032V57H190.116V27.6499H197.873V32.8282H198.217C198.867 31.1212 199.956 29.7709 201.485 28.7772C203.014 27.7709 204.867 27.2677 207.045 27.2677C209.084 27.2677 210.861 27.7136 212.377 28.6053C213.892 29.497 215.071 30.7709 215.912 32.4269C216.752 34.0702 217.173 36.032 217.173 38.3122V57H209.033V39.7644C209.045 37.9683 208.587 36.567 207.657 35.5606C206.727 34.5415 205.447 34.032 203.816 34.032C202.721 34.032 201.752 34.2677 200.912 34.739C200.084 35.2103 199.434 35.8982 198.963 36.8027C198.504 37.6944 198.268 38.7708 198.256 40.032ZM237.585 27.6499V33.7645H219.91V27.6499H237.585ZM223.923 20.6181H232.063V47.9809C232.063 48.7325 232.178 49.3185 232.407 49.7389C232.636 50.1465 232.955 50.4332 233.362 50.5988C233.783 50.7644 234.267 50.8472 234.815 50.8472C235.197 50.8472 235.579 50.8153 235.961 50.7516C236.343 50.6752 236.636 50.6179 236.84 50.5797L238.12 56.6369C237.713 56.7643 237.14 56.9108 236.401 57.0764C235.662 57.2548 234.764 57.3631 233.706 57.4013C231.745 57.4777 230.025 57.2166 228.547 56.6178C227.082 56.0191 225.942 55.0892 225.127 53.828C224.312 52.5669 223.91 50.9746 223.923 49.051V20.6181ZM260.095 44.5033V27.6499H268.235V57H260.42V51.6688H260.114C259.452 53.3886 258.35 54.7707 256.809 55.8153C255.28 56.8599 253.414 57.3822 251.21 57.3822C249.248 57.3822 247.522 56.9363 246.032 56.0446C244.541 55.1529 243.376 53.8854 242.535 52.2421C241.707 50.5988 241.286 48.6306 241.274 46.3376V27.6499H249.414V44.8854C249.426 46.6179 249.891 47.9873 250.809 48.9937C251.726 50 252.955 50.5032 254.496 50.5032C255.477 50.5032 256.395 50.2803 257.248 49.8344C258.102 49.3758 258.789 48.7007 259.312 47.809C259.847 46.9173 260.108 45.8154 260.095 44.5033ZM277.89 57.4968C276.629 57.4968 275.546 57.051 274.642 56.1592C273.75 55.2548 273.304 54.172 273.304 52.9109C273.304 51.6625 273.75 50.5924 274.642 49.7007C275.546 48.809 276.629 48.3631 277.89 48.3631C279.113 48.3631 280.183 48.809 281.1 49.7007C282.017 50.5924 282.476 51.6625 282.476 52.9109C282.476 53.7516 282.259 54.5223 281.826 55.2229C281.406 55.9108 280.852 56.465 280.164 56.8854C279.476 57.293 278.718 57.4968 277.89 57.4968ZM287.545 57V27.6499H295.436V32.7709H295.742C296.277 30.9492 297.175 29.5734 298.436 28.6435C299.698 27.7008 301.15 27.2295 302.793 27.2295C303.201 27.2295 303.64 27.255 304.112 27.3059C304.583 27.3569 304.997 27.4269 305.354 27.5161V34.739C304.971 34.6243 304.443 34.5224 303.768 34.4333C303.092 34.3441 302.475 34.2995 301.914 34.2995C300.717 34.2995 299.647 34.5607 298.704 35.0829C297.774 35.5925 297.035 36.3059 296.487 37.2231C295.952 38.1402 295.685 39.1976 295.685 40.395V57H287.545ZM326.769 44.5033V27.6499H334.91V57H327.094V51.6688H326.789C326.126 53.3886 325.024 54.7707 323.483 55.8153C321.954 56.8599 320.088 57.3822 317.884 57.3822C315.922 57.3822 314.196 56.9363 312.706 56.0446C311.215 55.1529 310.05 53.8854 309.209 52.2421C308.381 50.5988 307.961 48.6306 307.948 46.3376V27.6499H316.088V44.8854C316.101 46.6179 316.566 47.9873 317.483 48.9937C318.4 50 319.629 50.5032 321.171 50.5032C322.152 50.5032 323.069 50.2803 323.922 49.8344C324.776 49.3758 325.464 48.7007 325.986 47.809C326.521 46.9173 326.782 45.8154 326.769 44.5033Z" fill="white"/>
</svg>
