<svg width="70" height="70" viewBox="0 0 70 70" fill="none" xmlns="http://www.w3.org/2000/svg">
<path d="M45.4705 36.1667V48.0375C45.4705 49.0875 45.3538 50.0792 45.0913 50.9833C44.0122 55.2708 40.4538 57.9542 35.5538 57.9542H27.6205L18.8122 63.8167C17.4997 64.7208 15.7497 63.7583 15.7497 62.1833V57.9542C12.7747 57.9542 10.2955 56.9625 8.57467 55.2417C6.82467 53.4917 5.83301 51.0125 5.83301 48.0375V36.1667C5.83301 30.625 9.27467 26.8042 14.583 26.3083C14.9622 26.2792 15.3413 26.25 15.7497 26.25H35.5538C41.5038 26.25 45.4705 30.2167 45.4705 36.1667Z" fill="#A9A9BD"/>
<path d="M51.7705 45.4997C55.4747 45.4997 58.5955 44.2747 60.7538 42.0872C62.9413 39.9288 64.1663 36.808 64.1663 33.1038V18.2288C64.1663 11.3747 58.6247 5.83301 51.7705 5.83301H26.9788C20.1247 5.83301 14.583 11.3747 14.583 18.2288V20.4163C14.583 21.233 15.2247 21.8747 16.0413 21.8747H35.5538C43.458 21.8747 49.8455 28.2622 49.8455 36.1663V44.0413C49.8455 44.858 50.4872 45.4997 51.3038 45.4997H51.7705Z" fill="#A9A9BD"/>
</svg>
