<svg width="40" height="40" viewBox="0 0 40 40" fill="none" xmlns="http://www.w3.org/2000/svg">
<path d="M36.5334 27.9183C35.9834 32.3516 32.3501 35.985 27.9168 36.535C25.2334 36.8683 22.7334 36.135 20.7834 34.7016C19.6668 33.885 19.9334 32.1516 21.2668 31.7516C26.2834 30.235 30.2334 26.2683 31.7668 21.2516C32.1668 19.935 33.9001 19.6683 34.7168 20.7683C36.1334 22.735 36.8668 25.235 36.5334 27.9183Z" fill="#4428D2"/>
<path d="M17.7259 11.9876C18.2622 11.9877 18.7049 12.0854 19.0524 12.2806C19.404 12.4715 19.6653 12.7344 19.8369 13.0684C20.0128 13.3982 20.0984 13.7716 20.0941 14.1882C20.0983 14.6133 20.0128 14.9847 19.8369 15.3014C19.6653 15.618 19.3996 15.8658 19.0394 16.0436C18.6831 16.2216 18.2275 16.3105 17.6738 16.3105H15.1364V11.9876H17.7259Z" fill="#4428D2"/>
<path fill-rule="evenodd" clip-rule="evenodd" d="M16.6501 3.33203C23.9999 3.33224 29.9505 9.29922 29.9671 16.6491C29.9669 23.9988 23.9998 29.9659 16.6501 29.9661C9.3002 29.9661 3.33322 23.9989 3.33301 16.6491C3.33301 9.29909 9.30007 3.33203 16.6501 3.33203ZM12.7552 9.98242V16.3105H10.8167V18.2962H12.7552V19.2858H10.8167V21.2715H12.7552V23.3158H15.1364V21.2715H18.0286V19.2858H15.1364V18.2962H17.7259C18.7343 18.2962 19.5927 18.1225 20.3008 17.7754C21.009 17.4239 21.5501 16.9398 21.9235 16.3236C22.2969 15.703 22.4833 14.9844 22.4834 14.1686C22.4834 13.3832 22.299 12.6755 21.93 12.0462C21.5652 11.4127 21.0284 10.9112 20.3203 10.5423C19.6122 10.1691 18.7472 9.9825 17.7259 9.98242H12.7552Z" fill="#4428D2"/>
</svg>
