<svg width="14" height="15" viewBox="0 0 14 15" fill="none" xmlns="http://www.w3.org/2000/svg">
<path d="M7 0.945801C3.143 0.945801 0 4.0888 0 7.9458C0 11.8028 3.143 14.9458 7 14.9458C10.857 14.9458 14 11.8028 14 7.9458C14 4.0888 10.857 0.945801 7 0.945801ZM10.346 6.3358L6.377 10.3048C6.279 10.4028 6.146 10.4588 6.006 10.4588C5.866 10.4588 5.733 10.4028 5.635 10.3048L3.654 8.3238C3.451 8.1208 3.451 7.7848 3.654 7.5818C3.857 7.3788 4.193 7.3788 4.396 7.5818L6.006 9.1918L9.604 5.5938C9.807 5.3908 10.143 5.3908 10.346 5.5938C10.549 5.7968 10.549 6.1258 10.346 6.3358Z" fill="white"/>
</svg>
