<svg width="14" height="15" viewBox="0 0 14 15" fill="none" xmlns="http://www.w3.org/2000/svg">
<path d="M7 0.945801C3.143 0.945801 0 4.0888 0 7.9458C0 11.8028 3.143 14.9458 7 14.9458C10.857 14.9458 14 11.8028 14 7.9458C14 4.0888 10.857 0.945801 7 0.945801ZM10.045 10.4448C9.947 10.6128 9.772 10.7038 9.59 10.7038C9.499 10.7038 9.408 10.6828 9.324 10.6268L7.154 9.3318C6.615 9.0098 6.216 8.3028 6.216 7.6798V4.8098C6.216 4.5228 6.454 4.2848 6.741 4.2848C7.028 4.2848 7.266 4.5228 7.266 4.8098V7.6798C7.266 7.9318 7.476 8.3028 7.693 8.4288L9.863 9.7238C10.115 9.8708 10.199 10.1928 10.045 10.4448Z" fill="white"/>
</svg>
