<svg width="14" height="15" viewBox="0 0 14 15" fill="none" xmlns="http://www.w3.org/2000/svg">
<path d="M7 0.945801C3.143 0.945801 0 4.0888 0 7.9458C0 11.8028 3.143 14.9458 7 14.9458C10.857 14.9458 14 11.8028 14 7.9458C14 4.0888 10.857 0.945801 7 0.945801ZM9.352 9.5558C9.555 9.7588 9.555 10.0948 9.352 10.2978C9.247 10.4028 9.114 10.4518 8.981 10.4518C8.848 10.4518 8.715 10.4028 8.61 10.2978L7 8.6878L5.39 10.2978C5.285 10.4028 5.152 10.4518 5.019 10.4518C4.886 10.4518 4.753 10.4028 4.648 10.2978C4.445 10.0948 4.445 9.7588 4.648 9.5558L6.258 7.9458L4.648 6.3358C4.445 6.1328 4.445 5.7968 4.648 5.5938C4.851 5.3908 5.187 5.3908 5.39 5.5938L7 7.2038L8.61 5.5938C8.813 5.3908 9.149 5.3908 9.352 5.5938C9.555 5.7968 9.555 6.1328 9.352 6.3358L7.742 7.9458L9.352 9.5558Z" fill="white"/>
</svg>
