<svg width="14" height="15" viewBox="0 0 14 15" fill="none" xmlns="http://www.w3.org/2000/svg">
<path d="M7 0.945801C3.136 0.945801 0 4.0818 0 7.9458C0 11.8098 3.136 14.9458 7 14.9458C10.864 14.9458 14 11.8098 14 7.9458C14 4.0818 10.871 0.945801 7 0.945801ZM9.625 8.1908L7.021 11.1518L6.713 11.5018C6.286 11.9848 5.936 11.8588 5.936 11.2078V8.4358H4.746C4.207 8.4358 4.06 8.1068 4.417 7.7008L7.021 4.7398L7.329 4.3898C7.756 3.9068 8.106 4.0328 8.106 4.6838V7.4558H9.296C9.835 7.4558 9.982 7.7848 9.625 8.1908Z" fill="white"/>
</svg>
